<svg xmlns="http://www.w3.org/2000/svg" width="1024" height="1024" viewBox="0 0 1024 1024">
  <rect width="1024" height="1024" rx="229.4" fill="#0D0D0D"></rect>
  <g transform="translate(99.17 747.52)">
    <path d="M818.998-471.040L818.998-471.040L818.998-458.399Q796.377-452.411 768.767-436.444Q741.156-420.476 709.887-385.215L709.887-385.215L644.686-311.365L799.038-53.890Q807.687-39.919 816.336-30.604Q824.985-21.290 839.622-13.306L839.622-13.306L839.622 0Q811.679-1.331 780.077-1.663Q748.475-1.996 719.866-1.996L719.866-1.996Q704.564-1.996 681.944-1.663Q659.323-1.331 624.727 0L624.727 0L624.727-13.306Q655.996-14.637 660.986-20.625Q665.976-26.612 655.996-43.245L655.996-43.245L559.526-206.246Q552.873-218.222 547.551-224.210Q542.228-230.198 537.571-232.859L537.571-232.859Q533.579-234.855 528.257-235.520L528.257-235.520L528.257-70.523Q528.257-46.572 531.916-34.596Q535.575-22.621 545.555-18.629Q555.534-14.637 575.494-13.306L575.494-13.306L575.494 0Q556.200-1.331 525.928-1.663Q495.656-1.996 464.387-1.996L464.387-1.996Q428.460-1.996 396.858-1.663Q365.256-1.331 345.962 0L345.962 0L345.962-13.306Q366.586-14.637 376.566-18.629Q386.546-22.621 389.872-34.596Q393.199-46.572 393.199-70.523L393.199-70.523L393.199-400.517Q393.199-425.134 389.872-436.776Q386.546-448.419 376.233-452.744Q365.921-457.068 345.962-457.734L345.962-457.734L345.962-471.040Q365.256-470.375 396.858-469.709Q428.460-469.044 464.387-469.044L464.387-469.044Q495.656-469.044 525.928-469.709Q556.200-470.375 575.494-471.040L575.494-471.040L575.494-457.734Q555.534-457.068 545.222-452.744Q534.910-448.419 531.583-436.776Q528.257-425.134 528.257-400.517L528.257-400.517L528.257-250.157Q555.534-252.818 579.486-270.116L579.486-270.116Q605.433-288.080 642.025-329.329L642.025-329.329L664.645-354.611Q692.588-385.880 694.252-408.833Q695.915-431.787 680.280-444.760Q664.645-457.734 639.364-458.399L639.364-458.399L639.364-471.040Q657.992-470.375 674.292-470.042Q690.593-469.709 708.889-469.377Q727.185-469.044 751.801-469.044L751.801-469.044Q773.091-469.044 789.391-469.709Q805.691-470.375 818.998-471.040Z" fill="#E53935"></path>
    <path d="M264.794-471.040L264.794-471.040L425.799-55.886Q435.113-33.266 445.758-23.619Q456.403-13.972 465.052-13.306L465.052-13.306L465.052 0Q441.101-1.331 409.166-1.663Q377.231-1.996 343.966-1.996L343.966-1.996Q310.035-1.996 280.096-1.663Q250.157-1.331 232.193 0L232.193 0L232.193-13.306Q266.124-14.637 275.106-24.949Q284.088-35.261 270.781-69.192L270.781-69.192L231.528-178.303L97.135-178.303L85.825-148.364Q69.192-105.119 65.533-78.839Q61.874-52.560 68.527-38.588Q75.180-24.616 89.817-19.294Q104.454-13.972 124.413-13.306L124.413-13.306L124.413 0Q99.797-1.331 80.170-1.663Q60.543-1.996 37.257-1.996L37.257-1.996Q24.616-1.996 10.312-1.663Q-3.992-1.331-13.972 0L-13.972 0L-13.972-13.306Q1.331-15.967 16.300-32.933Q31.270-49.898 47.237-91.148L47.237-91.148L194.936-471.040Q210.904-469.709 229.865-469.709Q248.826-469.709 264.794-471.040ZM102.458-191.609L226.871-191.609L166.328-357.937L102.458-191.609Z" fill="#FFFFFF"></path>
  </g>
</svg>