<svg xmlns="http://www.w3.org/2000/svg" width="1020.9" height="200" viewBox="0 0 1020.9 200">
  <rect x="0" y="0" width="200" height="200" rx="44.8" fill="#0D0D0D"></rect>
  <g transform="translate(19.37 146) scale(0.1953)">
    <path d="M818.998-471.040L818.998-471.040L818.998-458.399Q796.377-452.411 768.767-436.444Q741.156-420.476 709.887-385.215L709.887-385.215L644.686-311.365L799.038-53.890Q807.687-39.919 816.336-30.604Q824.985-21.290 839.622-13.306L839.622-13.306L839.622 0Q811.679-1.331 780.077-1.663Q748.475-1.996 719.866-1.996L719.866-1.996Q704.564-1.996 681.944-1.663Q659.323-1.331 624.727 0L624.727 0L624.727-13.306Q655.996-14.637 660.986-20.625Q665.976-26.612 655.996-43.245L655.996-43.245L559.526-206.246Q552.873-218.222 547.551-224.210Q542.228-230.198 537.571-232.859L537.571-232.859Q533.579-234.855 528.257-235.520L528.257-235.520L528.257-70.523Q528.257-46.572 531.916-34.596Q535.575-22.621 545.555-18.629Q555.534-14.637 575.494-13.306L575.494-13.306L575.494 0Q556.200-1.331 525.928-1.663Q495.656-1.996 464.387-1.996L464.387-1.996Q428.460-1.996 396.858-1.663Q365.256-1.331 345.962 0L345.962 0L345.962-13.306Q366.586-14.637 376.566-18.629Q386.546-22.621 389.872-34.596Q393.199-46.572 393.199-70.523L393.199-70.523L393.199-400.517Q393.199-425.134 389.872-436.776Q386.546-448.419 376.233-452.744Q365.921-457.068 345.962-457.734L345.962-457.734L345.962-471.040Q365.256-470.375 396.858-469.709Q428.460-469.044 464.387-469.044L464.387-469.044Q495.656-469.044 525.928-469.709Q556.200-470.375 575.494-471.040L575.494-471.040L575.494-457.734Q555.534-457.068 545.222-452.744Q534.910-448.419 531.583-436.776Q528.257-425.134 528.257-400.517L528.257-400.517L528.257-250.157Q555.534-252.818 579.486-270.116L579.486-270.116Q605.433-288.080 642.025-329.329L642.025-329.329L664.645-354.611Q692.588-385.880 694.252-408.833Q695.915-431.787 680.280-444.760Q664.645-457.734 639.364-458.399L639.364-458.399L639.364-471.040Q657.992-470.375 674.292-470.042Q690.593-469.709 708.889-469.377Q727.185-469.044 751.801-469.044L751.801-469.044Q773.091-469.044 789.391-469.709Q805.691-470.375 818.998-471.040Z" fill="#E53935"></path>
    <path d="M264.794-471.040L264.794-471.040L425.799-55.886Q435.113-33.266 445.758-23.619Q456.403-13.972 465.052-13.306L465.052-13.306L465.052 0Q441.101-1.331 409.166-1.663Q377.231-1.996 343.966-1.996L343.966-1.996Q310.035-1.996 280.096-1.663Q250.157-1.331 232.193 0L232.193 0L232.193-13.306Q266.124-14.637 275.106-24.949Q284.088-35.261 270.781-69.192L270.781-69.192L231.528-178.303L97.135-178.303L85.825-148.364Q69.192-105.119 65.533-78.839Q61.874-52.560 68.527-38.588Q75.180-24.616 89.817-19.294Q104.454-13.972 124.413-13.306L124.413-13.306L124.413 0Q99.797-1.331 80.170-1.663Q60.543-1.996 37.257-1.996L37.257-1.996Q24.616-1.996 10.312-1.663Q-3.992-1.331-13.972 0L-13.972 0L-13.972-13.306Q1.331-15.967 16.300-32.933Q31.270-49.898 47.237-91.148L47.237-91.148L194.936-471.040Q210.904-469.709 229.865-469.709Q248.826-469.709 264.794-471.040ZM102.458-191.609L226.871-191.609L166.328-357.937L102.458-191.609Z" fill="#FFFFFF"></path>
  </g>
  <g transform="translate(264.15 167.25)">
    <path d="M27.322 1.226L27.322 1.226Q19.090 1.226 13.836-1.927Q8.582-5.079 6.218-10.158Q3.853-15.237 3.853-20.842L3.853-20.842Q3.853-28.198 7.181-32.839Q10.508-37.480 15.850-40.370Q21.192-43.260 27.147-45.186Q33.102-47.113 38.444-48.952Q43.785-50.791 47.113-53.331Q50.441-55.870 50.441-59.898L50.441-59.898L50.441-75.486Q50.441-78.288 49.477-81.616Q48.514-84.944 45.887-87.395Q43.260-89.847 38.006-89.847L38.006-89.847Q35.203-89.847 32.664-89.059Q30.124-88.271 28.198-86.870L28.198-86.870Q34.328-84.593 37.130-80.477Q39.932-76.362 39.932-71.458L39.932-71.458Q39.932-64.452 35.028-60.424Q30.124-56.395 23.469-56.395L23.469-56.395Q16.463-56.395 12.610-60.774Q8.757-65.153 8.757-71.633L8.757-71.633Q8.757-77.062 11.472-80.828Q14.186-84.593 19.616-87.746L19.616-87.746Q24.870-90.723 32.226-92.037Q39.582-93.350 47.638-93.350L47.638-93.350Q56.220-93.350 63.576-91.686Q70.932-90.023 76.186-84.593L76.186-84.593Q79.864-80.740 80.915-74.960Q81.966-69.181 81.966-60.073L81.966-60.073L81.966-13.136Q81.966-8.757 82.579-7.181Q83.192-5.605 84.768-5.605L84.768-5.605Q86.169-5.605 87.483-6.480Q88.797-7.356 90.023-8.232L90.023-8.232L91.774-5.254Q87.921-1.927 82.229-0.350Q76.537 1.226 70.232 1.226L70.232 1.226Q62.701 1.226 58.585-0.613Q54.469-2.452 52.805-5.517Q51.141-8.582 50.966-12.085L50.966-12.085Q47.288-6.305 41.771-2.540Q36.254 1.226 27.322 1.226ZM43.960-12.785L43.960-12.785Q45.887-12.785 47.376-13.398Q48.864-14.011 50.441-15.763L50.441-15.763L50.441-52.718Q49.215-50.441 47.201-48.251Q45.186-46.062 43.085-43.785Q40.983-41.508 39.144-38.881Q37.305-36.254 36.167-32.839Q35.028-29.424 35.028-24.870L35.028-24.870Q35.028-18.215 37.568-15.500Q40.107-12.785 43.960-12.785ZM137.486-136.960L137.486-136.960L137.486-16.288Q137.486-8.932 139.675-6.305Q141.864-3.678 147.294-3.678L147.294-3.678L147.294 0Q143.791-0.175 136.785-0.438Q129.780-0.701 122.424-0.701L122.424-0.701Q115.068-0.701 107.537-0.438Q100.006-0.175 96.153 0L96.153 0L96.153-3.678Q101.582-3.678 103.771-6.305Q105.960-8.932 105.960-16.288L105.960-16.288L105.960-115.944Q105.960-123.825 103.859-127.590Q101.757-131.356 96.153-131.356L96.153-131.356L96.153-135.034Q101.757-134.508 107.011-134.508L107.011-134.508Q115.768-134.508 123.387-135.121Q131.006-135.734 137.486-136.960ZM194.932-136.960L194.932-136.960L194.932-16.288Q194.932-8.932 197.121-6.305Q199.311-3.678 204.740-3.678L204.740-3.678L204.740 0Q201.237-0.175 194.232-0.438Q187.226-0.701 179.870-0.701L179.870-0.701Q172.514-0.701 164.983-0.438Q157.452-0.175 153.599 0L153.599 0L153.599-3.678Q159.028-3.678 161.218-6.305Q163.407-8.932 163.407-16.288L163.407-16.288L163.407-115.944Q163.407-123.825 161.305-127.590Q159.203-131.356 153.599-131.356L153.599-131.356L153.599-135.034Q159.203-134.508 164.458-134.508L164.458-134.508Q173.215-134.508 180.833-135.121Q188.452-135.734 194.932-136.960ZM258.333-93.350L258.333-93.350Q273.746-93.350 282.590-84.331Q291.435-75.311 291.435-54.119L291.435-54.119L246.249-54.119Q246.073-52.893 246.073-51.492L246.073-51.492L246.073-47.814Q246.073-35.554 249.138-28.723Q252.203-21.893 256.845-19.266Q261.486-16.638 266.215-16.638L266.215-16.638Q268.667-16.638 272.082-17.339Q275.497-18.040 279.525-20.579Q283.554-23.119 287.407-28.373L287.407-28.373L290.384-27.322Q288.282-20.316 283.641-13.398Q279.000-6.480 271.644-2.014Q264.288 2.452 253.780 2.452L253.780 2.452Q242.571 2.452 233.376-2.102Q224.181-6.655 218.751-17.164Q213.322-27.672 213.322-45.362L213.322-45.362Q213.322-62.175 219.277-72.771Q225.232-83.367 235.477-88.359Q245.723-93.350 258.333-93.350ZM245.548-57.446L245.548-57.446L265.864-57.446Q266.040-66.028 265.164-73.297Q264.288-80.565 262.362-84.944Q260.435-89.322 257.107-89.322L257.107-89.322Q252.379-89.322 249.401-81.966L249.401-81.966Q246.424-74.610 245.548-57.446ZM336.446-93.350L336.446-93.350Q344.153-93.350 350.020-91.686Q355.887-90.023 358.514-88.621L358.514-88.621Q361.316-87.045 363.068-87.746L363.068-87.746Q365.345-88.621 366.045-93.175L366.045-93.175L369.548-93.175Q369.198-88.096 369.023-80.828Q368.847-73.559 368.847-61.650L368.847-61.650L365.345-61.650Q364.644-68.130 362.280-74.435Q359.915-80.740 355.449-84.944Q350.983-89.147 343.802-89.147L343.802-89.147Q339.424-89.147 336.446-86.520Q333.469-83.893 333.469-79.339L333.469-79.339Q333.469-74.085 336.621-69.969Q339.774-65.853 344.678-62.088Q349.582-58.322 354.486-54.119L354.486-54.119Q359.915-49.740 364.119-45.537Q368.322-41.333 370.862-36.342Q373.401-31.350 373.401-24.520L373.401-24.520Q373.401-16.638 368.585-10.508Q363.768-4.379 355.799-0.963Q347.831 2.452 338.023 2.452L338.023 2.452Q331.893 2.452 327.339 1.138Q322.785-0.175 319.983-1.927L319.983-1.927Q317.181-3.328 315.167-4.116Q313.153-4.904 311.226-4.904L311.226-4.904Q309.475-4.904 308.249-3.065Q307.023-1.226 306.322 1.226L306.322 1.226L302.819 1.226Q303.169-4.379 303.345-12.435Q303.520-20.492 303.520-33.802L303.520-33.802L307.023-33.802Q308.073-24.520 311.138-17.339Q314.203-10.158 319.020-6.042Q323.836-1.927 330.141-1.927L330.141-1.927Q332.944-1.927 335.220-2.977Q337.497-4.028 338.898-6.130Q340.299-8.232 340.299-11.559L340.299-11.559Q340.299-19.266 335.658-24.520Q331.017-29.774 324.011-36.079L324.011-36.079Q318.757-40.983 314.116-45.624Q309.475-50.266 306.497-55.782Q303.520-61.299 303.520-68.130L303.520-68.130Q303.520-76.011 308.161-81.616Q312.802-87.220 320.333-90.285Q327.864-93.350 336.446-93.350Z" fill="#0D0D0D"></path>
    <path d="M423.141-136.960L423.141-136.960L423.141-49.390Q425.068-49.390 426.819-49.915L426.819-49.915Q428.921-50.266 430.672-52.017L430.672-52.017L444.158-64.627Q450.288-70.232 450.376-75.223Q450.463-80.215 446.523-83.542Q442.582-86.870 436.277-87.395L436.277-87.395L436.277-90.898Q441.356-90.723 447.223-90.548Q453.090-90.373 457.294-90.373L457.294-90.373Q460.972-90.373 465.701-90.460Q470.429-90.548 474.720-90.636Q479.011-90.723 481.288-90.898L481.288-90.898L481.288-87.395Q474.983-85.644 468.503-81.266Q462.023-76.887 455.367-70.232L455.367-70.232L450.814-65.678L478.661-12.785Q480.062-10.158 481.638-7.619Q483.215-5.079 485.667-3.678L485.667-3.678L485.667 0Q482.689-0.175 476.647-0.438Q470.605-0.701 464.475-0.701L464.475-0.701Q457.469-0.701 450.376-0.438Q443.282-0.175 439.780 0L439.780 0L439.780-3.678Q443.282-3.678 444.421-5.254Q445.559-6.831 444.158-9.633L444.158-9.633L428.746-42.209Q427.520-44.661 425.944-45.362L425.944-45.362Q424.718-45.887 423.141-46.062L423.141-46.062L423.141-16.288Q423.141-8.932 425.331-6.305Q427.520-3.678 432.949-3.678L432.949-3.678L432.949 0Q429.446-0.175 422.441-0.438Q415.435-0.701 408.079-0.701Q400.723-0.701 393.192-0.438Q385.661-0.175 381.808 0L381.808 0L381.808-3.678Q387.237-3.678 389.427-6.305Q391.616-8.932 391.616-16.288L391.616-16.288L391.616-115.944Q391.616-123.825 389.514-127.590Q387.412-131.356 381.808-131.356L381.808-131.356L381.808-135.034Q387.412-134.508 392.667-134.508L392.667-134.508Q401.424-134.508 409.042-135.121Q416.661-135.734 423.141-136.960ZM581.294-92.825L581.294-92.825L581.294-19.090Q581.294-11.209 583.483-7.444Q585.672-3.678 591.102-3.678L591.102-3.678L591.102 0Q585.672-0.525 580.243-0.525L580.243-0.525Q571.486-0.525 563.955 0Q556.424 0.525 549.768 1.927L549.768 1.927L549.768-10.684Q545.565-3.678 538.472-0.613Q531.379 2.452 521.921 2.452L521.921 2.452Q513.864 2.452 509.223 0.438Q504.582-1.576 502.130-4.554L502.130-4.554Q499.503-7.706 498.277-12.960Q497.051-18.215 497.051-27.147L497.051-27.147L497.051-71.808Q497.051-79.689 494.949-83.455Q492.847-87.220 487.243-87.220L487.243-87.220L487.243-90.898Q492.847-90.373 498.102-90.373L498.102-90.373Q506.859-90.373 514.477-90.986Q522.096-91.599 528.576-92.825L528.576-92.825L528.576-17.689Q528.576-14.011 529.452-11.559Q530.328-9.107 532.254-7.881Q534.181-6.655 537.158-6.655L537.158-6.655Q540.486-6.655 543.288-8.232Q546.090-9.808 547.929-12.698Q549.768-15.588 549.768-19.266L549.768-19.266L549.768-71.808Q549.768-79.689 547.667-83.455Q545.565-87.220 539.960-87.220L539.960-87.220L539.960-90.898Q545.565-90.373 550.819-90.373L550.819-90.373Q559.576-90.373 567.195-90.986Q574.814-91.599 581.294-92.825ZM661.859-93.350L661.859-93.350Q668.164-93.350 671.667-90.636Q675.169-87.921 676.571-83.805Q677.972-79.689 677.972-75.661L677.972-75.661Q677.972-67.780 673.506-63.138Q669.040-58.497 661.859-58.497L661.859-58.497Q654.153-58.497 650.212-62.000Q646.271-65.503 646.271-71.107L646.271-71.107Q646.271-77.062 648.811-80.915Q651.350-84.768 655.203-87.395L655.203-87.395Q652.051-87.395 649.599-86.169L649.599-86.169Q647.497-85.294 645.571-83.718Q643.644-82.141 642.243-80.127Q640.842-78.113 640.054-75.661Q639.266-73.209 639.266-70.582L639.266-70.582L639.266-18.040Q639.266-9.633 642.768-6.655Q646.271-3.678 654.328-3.678L654.328-3.678L654.328 0Q650.299-0.175 642.331-0.438Q634.362-0.701 625.955-0.701L625.955-0.701Q618.073-0.701 610.017-0.438Q601.960-0.175 597.932 0L597.932 0L597.932-3.678Q603.362-3.678 605.551-6.305Q607.740-8.932 607.740-16.288L607.740-16.288L607.740-71.808Q607.740-79.689 605.638-83.455Q603.537-87.220 597.932-87.220L597.932-87.220L597.932-90.898Q603.537-90.373 608.791-90.373L608.791-90.373Q617.548-90.373 625.167-90.986Q632.785-91.599 639.266-92.825L639.266-92.825L639.266-80.215Q641.542-84.768 644.870-87.658Q648.198-90.548 652.489-91.949Q656.780-93.350 661.859-93.350ZM756.785-91.599L756.785-91.599L717.554-2.627L720.006-2.627Q726.661-2.627 733.229-5.605Q739.797-8.582 744.613-15.850Q749.429-23.119 750.305-36.079L750.305-36.079L753.808-36.079Q753.808-22.243 753.983-13.749Q754.158-5.254 754.508 0.701L754.508 0.701Q746.452 0.350 737.695 0.175Q728.938 0 720.181 0L720.181 0Q711.073 0 701.441 0.263Q691.808 0.525 683.051 0.876L683.051 0.876L722.282-88.096L718.780-88.096Q712.299-88.096 705.907-85.119Q699.514-82.141 695.048-74.873Q690.582-67.605 689.531-54.644L689.531-54.644L686.028-54.644Q686.028-68.655 685.853-77.062Q685.678-85.469 685.328-91.424L685.328-91.424Q693.559-91.073 702.316-90.898Q711.073-90.723 719.655-90.723L719.655-90.723Q728.938-90.723 738.483-90.986Q748.028-91.249 756.785-91.599Z" fill="#E53935"></path>
  </g>
</svg>